<?xml version="1.0" encoding="UTF-8"?><svg id="Layer_1" xmlns="http://www.w3.org/2000/svg" viewBox="0 0 612.38 727.06"><defs><style>.cls-1{fill:#fff;}.cls-2{opacity:.29;}</style></defs><g class="cls-2"><g><path class="cls-1" d="M307.06,296.81c-12.89-12-23.96-20.66-32.93-31.04-14.25-16.5-12.42-37.47,2.92-51.6,7.78-7.18,17.93-10.78,28.09-10.78s19.74,3.39,27.47,10.2c16.18,14.23,17.81,36.33,3.19,53.19-8.97,10.35-18.95,19.86-28.74,30.03m-1.92-83.31c-7.9,0-15.34,2.84-20.94,8.01-11.74,10.83-12.57,25.65-2.11,37.76,5.6,6.49,12.26,12.4,19.97,19.24,1.5,1.32,3.02,2.68,4.57,4.07,.71-.72,1.42-1.44,2.13-2.15,6.76-6.84,13.15-13.3,19.1-20.16,10.95-12.63,10.05-28.37-2.22-39.17-5.56-4.89-12.84-7.59-20.5-7.59m1.92,93.42c.09,0,.19,0,.28,0,2.77-.07,5.4-1.22,7.3-3.19,3.02-3.14,6.06-6.21,9.09-9.27,6.7-6.77,13.62-13.78,20.02-21.15,18.11-20.89,16.36-49.16-4.16-67.21-9.39-8.26-21.62-12.81-34.44-12.81s-25.76,4.81-35.24,13.55c-19.75,18.21-21.28,45.12-3.73,65.45,6.49,7.51,13.96,14.15,21.87,21.17,3.75,3.32,7.69,6.82,11.82,10.67,1.94,1.8,4.51,2.81,7.19,2.81h0Zm-1.92-83.31c5.08,0,9.88,1.77,13.53,4.97,8.06,7.1,8.54,16.73,1.24,25.15-4.29,4.95-8.88,9.74-13.76,14.71-6.21-5.54-11.64-10.51-16.11-15.69-6.94-8.04-6.47-16.75,1.3-23.91,3.66-3.38,8.56-5.23,13.79-5.23h0Z"/><path class="cls-1" d="M307.43,716.95c-30.43,0-60.1-11.96-81.4-32.8-41.52-40.63-43.1-105.63-3.59-147.97,7.92-8.49,17.66-14.83,26.26-20.43,.07-.05,.15-.09,.22-.14l-12.36-13.14-19.16-20.37-33.37-32.46-18.96-17.98-7.7-7.31,.35-.32-40.16-39.07-6.37-8.1c-65.67-87.34-58.39-211.97,17.39-290.99C174.74,37.73,239.61,10.11,306.55,10.11c46.42,0,91.31,13.1,129.81,37.89,96.45,62.09,133.87,181.5,88.99,283.94-19.29,44.03-52.89,75.95-85.38,106.82-12.21,11.6-24.83,23.59-36.47,36.03l-7.31,7.81-7.7-7.45c-17.37-16.81-34.83-33.35-52.21-49.82-39.79-37.7-80.93-76.69-118.89-117.08-18.17-19.33-27.35-44.55-25.83-70.99,1.67-29.28,16.24-57.65,39.95-77.83,20.13-17.13,46.11-26.57,73.15-26.57,30.45,0,59.17,11.57,80.88,32.57,42.2,40.83,43.32,106.53,2.54,149.59-7.2,7.61-15.73,13.61-22.89,18.51l11.91,13.35,18.61,20.86c59.64-50.58,93.3-133.64,37.75-211.93-28.77-40.55-76.99-64.76-128.98-64.76-25.8,0-51.27,6.22-73.64,18-34.88,18.36-59.08,45.64-71.92,81.09-17.49,48.26-11.16,96.51,18.3,139.54l2.85,4.17,69.9,68.01c8.37,7.88,16.87,15.84,25.35,23.78,40.44,37.88,82.27,77.06,120.66,117.84,17.42,18.5,26.11,42.91,24.48,68.73-1.89,30.04-17.24,59.11-42.1,79.75-19.41,16.12-44.6,25-70.92,25h-.01m-.88-696.72c-62.4,0-124.65,24.86-170.38,72.55-72.73,75.85-79.27,196.8-15.09,280.1,1.36,1.77,3.83,4.94,3.83,4.94l47.67,46.38c-.08,.08-.16,.15-.24,.23l19.05,18.07,33.69,32.77c11.54,12.27,23.38,24.86,39.55,42.04-10.25,7.48-24.35,14.81-34.48,25.66-36.05,38.63-33.97,97.61,3.26,134.05,20.19,19.75,47.22,29.82,74.03,29.82h.01c23.06,0,45.96-7.45,64.18-22.57,42.12-34.98,52.98-95.42,16.7-133.96-46.03-48.89-95.88-94.39-145.7-141.3,0,0-74.67-73.1-74.06-73.73-29.87-43.61-39.05-94.45-19.45-148.51,13.91-38.37,39.97-67.24,76.78-86.62,24.72-13.02,51.76-19.22,78.59-19.22,53.42,0,105.96,24.63,137.54,69.13,40.67,57.32,52.06,154.7-47.48,231.78-13.13-14.71-26.39-29.58-44.65-50.05,7.72-5.86,20.76-13.28,30.55-23.62,37.16-39.24,35.68-98.89-2.23-135.57-20.33-19.67-47-29.63-73.55-29.63-23.74,0-47.38,7.96-66.3,24.07-41.26,35.12-50.24,95.09-13.29,134.39,53.97,57.42,112.82,110.5,170.76,166.56,42.61-45.54,94.38-81.61,119.97-140.01,42.62-97.25,7.1-212.15-85.16-271.54-37.84-24.36-80.99-36.21-124.08-36.21m.89,706.83h0c28.8,0,56.38-9.74,77.67-27.42,26.99-22.41,43.66-54.06,45.72-86.82,1.81-28.58-7.85-55.64-27.19-76.18-38.62-41.02-80.56-80.3-121.12-118.29-8.47-7.93-16.96-15.89-25.21-23.65l-69.17-67.31-2.28-3.33c-27.58-40.28-33.51-85.43-17.15-130.57,11.97-33.01,34.53-58.43,67.07-75.56,20.86-10.98,44.61-16.78,68.69-16.78,48.58,0,93.6,22.58,120.43,60.39,52.13,73.49,18.74,147.43-28.35,191.71l-11.6-13.01-4.5-5.04c5.17-3.87,10.45-8.25,15.27-13.34,44.58-47.07,43.32-118.93-2.86-163.61-23.67-22.9-55-35.51-88.21-35.51-29.56,0-57.96,10.32-79.99,29.07-25.81,21.97-41.65,52.91-43.48,84.88-1.67,29.19,8.47,57.02,28.54,78.38,38.15,40.59,79.38,79.66,119.31,117.49l.68,.65c17.13,16.23,34.33,32.54,51.45,49.1l7.7,7.45c1.95,1.89,4.59,2.94,7.33,2.94,.08,0,.17,0,.26,0,2.84-.07,5.52-1.26,7.43-3.3l7.31-7.81c11.46-12.24,23.96-24.12,36.05-35.61,33.22-31.57,67.57-64.21,87.67-110.09,46.85-106.93,7.82-231.55-92.81-296.34C401.89,13.68,355.02,0,306.55,0,236.74,0,169.1,28.79,120.97,78.98c-78.81,82.19-86.63,212.82-18.04,304.03l6.37,8.1c.28,.35,.58,.69,.9,1.01l37.95,36.92c.5,.94,1.16,1.81,1.96,2.56l7.7,7.31,18.86,17.89,33.05,32.13,19.16,20.36,4.28,4.55c-6.28,4.38-12.68,9.38-18.42,15.53-43.23,46.33-41.52,117.45,3.91,161.9,23.24,22.74,55.6,35.78,88.78,35.78h0Zm-125.97-308.08c-.43-.7-.95-1.35-1.56-1.94l-47.15-45.87-3.37-4.36c-61.41-79.7-55.23-194.55,14.38-267.14C186.02,55.61,245.35,30.34,306.55,30.34c42.33,0,83.25,11.94,118.34,34.53,88.08,56.7,122.28,165.69,81.33,259.14-17.66,40.31-48.32,69.44-80.78,100.29-9.91,9.42-20.1,19.1-29.93,29.17-14.89-14.33-29.82-28.48-44.7-42.58-39.58-37.51-80.52-76.3-118.09-116.27-14.37-15.28-21.62-35.25-20.42-56.21,1.37-23.88,13.35-47.11,32.88-63.74,16.34-13.91,37.46-21.57,59.46-21.57,24.92,0,48.44,9.48,66.23,26.69,34.25,33.13,35.08,86.52,1.91,121.54-6.23,6.58-14.14,11.98-21.13,16.74-3.04,2.08-5.84,3.99-8.17,5.76-2.25,1.71-3.68,4.24-3.95,7-.28,2.76,.63,5.51,2.5,7.61l34.98,39.2,9.68,10.85c2.05,2.3,4.94,3.48,7.85,3.48,2.27,0,4.56-.72,6.47-2.2,99.73-77.23,96.75-178.92,49.56-245.44-32.65-46.02-87.26-73.5-146.09-73.5-29.25,0-58.13,7.07-83.53,20.44-39.55,20.82-67.02,51.82-81.63,92.15-19.75,54.49-12.63,108.95,20.6,157.48l.19-.12c2.39,3.38,6.53,7.53,12.31,13.33,6.93,6.96,16.23,16.18,25.55,25.38,18.61,18.37,37.29,36.66,37.43,36.8,8.53,8.03,17.07,16.03,25.58,24,42.04,39.38,81.75,76.57,119.68,116.86,13.77,14.63,20.36,33.24,19.07,53.82-1.55,24.6-14.25,48.51-34.84,65.61-15.65,13-36.05,20.15-57.44,20.15-24.93,0-49.23-9.78-66.66-26.83-33.71-32.99-35-85.75-2.94-120.12,6.21-6.65,14.45-12.02,22.42-17.21,3.75-2.44,7.35-4.79,10.59-7.15,2.35-1.71,3.84-4.31,4.12-7.15,.27-2.84-.7-5.66-2.68-7.77l-39.87-42.37-33.78-32.87-17.16-16.27h0Z"/><path class="cls-1" d="M306.62,646.29c-9.77,0-19.51-3.29-27.06-9.84-15.35-13.33-18-35.64-4.73-51.58,9.16-11,20.21-20.54,31.98-32.3,11.95,12.15,22.93,21.79,32,32.92,13.48,16.55,10.68,37.68-5.32,51.2-7.58,6.4-17.23,9.6-26.87,9.6m.13-79.32c-1.22,1.18-2.43,2.33-3.62,3.48-7.38,7.06-14.34,13.73-20.22,20.79-9.52,11.43-7.98,27.63,3.58,37.67,5.39,4.69,12.54,7.27,20.14,7.27,7.5,0,14.62-2.53,20.06-7.13,12.18-10.29,13.78-25.27,3.99-37.28-5.79-7.11-12.73-13.87-20.07-21.03-1.27-1.23-2.55-2.49-3.85-3.76m-.13,89.43c12.5,0,24.47-4.29,33.69-12.08,20.49-17.31,23.29-44.7,6.65-65.12-6.53-8.02-13.88-15.18-21.65-22.76-3.54-3.45-7.21-7.03-10.98-10.86-1.95-1.98-4.64-3.11-7.46-3.12h-.05c-2.8,0-5.49,1.1-7.44,3.06-3.69,3.69-7.31,7.15-10.83,10.52-7.8,7.47-15.17,14.53-21.79,22.47-16.36,19.64-13.78,48.41,5.88,65.49,9.21,8,21.27,12.41,33.98,12.41h0Zm.06-75.17c5.84,5.73,11.3,11.23,15.84,16.81,6.29,7.72,5.27,16.67-2.66,23.37-3.55,3-8.25,4.65-13.24,4.65-5.04,0-9.73-1.67-13.22-4.7-7.47-6.49-8.49-16.48-2.43-23.76,4.56-5.48,9.95-10.82,15.7-16.37h0Z"/></g></g><g><g><path class="cls-1" d="M27.57,225.24v61H8.09v-61H0v-14.84H8.09v-9.74c0-2.8,.45-5.52,1.35-8.17,.9-2.65,2.27-5.02,4.12-7.12,1.85-2.09,4.2-3.79,7.04-5.09,2.85-1.3,6.27-1.95,10.27-1.95h11.09v16.48h-7.64c-4.5,0-6.74,2.36-6.74,7.04v8.55h14.39v14.84h-14.39Z"/><path class="cls-1" d="M121.93,286.24c-4,0-7.45-.65-10.34-1.94-2.9-1.3-5.27-3-7.12-5.1-1.85-2.09-3.19-4.47-4.05-7.12-.85-2.64-1.27-5.37-1.27-8.17v-84.38h19.49v83.18c0,2.29,.52,4.04,1.57,5.24s2.82,1.8,5.32,1.8h7.49v16.48h-11.09Z"/><path class="cls-1" d="M224.61,286.24v-7.19c-2.59,2.7-5.6,4.72-8.99,6.07-3.4,1.34-6.89,2.02-10.49,2.02-3.9,0-7.4-.6-10.49-1.8-3.1-1.19-5.75-2.89-7.95-5.09-3.2-3.2-5.32-6.62-6.37-10.27-1.04-3.64-1.57-7.62-1.57-11.91v-49.91h19.49v47.21c0,2.7,.37,4.94,1.12,6.74,.75,1.79,1.75,3.25,3,4.35,1.25,1.1,2.65,1.9,4.2,2.4,1.55,.5,3.08,.75,4.57,.75s3.02-.25,4.57-.75c1.55-.5,2.95-1.3,4.2-2.4,1.25-1.1,2.28-2.55,3.08-4.35,.8-1.8,1.2-4.05,1.2-6.74v-47.21h19.48v78.08h-19.04Zm-38.22-90.83v-18.73h16.63v18.73h-16.63Zm33.12,0v-18.73h16.63v18.73h-16.63Z"/><path class="cls-1" d="M318.75,244.21c0,1.73-.33,3.35-1,4.85-.66,1.5-1.55,2.81-2.67,3.93-1.12,1.12-2.43,2.01-3.93,2.68-1.5,.66-3.12,.99-4.85,.99s-3.35-.33-4.85-.99c-1.5-.66-2.82-1.56-3.93-2.68-1.12-1.12-2.01-2.43-2.68-3.93-.66-1.5-.99-3.12-.99-4.85s.33-3.35,.99-4.85c.66-1.5,1.55-2.81,2.68-3.93,1.12-1.12,2.43-2.01,3.93-2.68,1.5-.66,3.12-.99,4.85-.99s3.35,.33,4.85,.99c1.5,.66,2.81,1.56,3.93,2.68,1.12,1.12,2.01,2.43,2.67,3.93,.66,1.5,1,3.12,1,4.85Z"/><path class="cls-1" d="M416.25,241.13c0-5.1-1.45-9.27-4.34-12.51-2.9-3.25-7.15-4.88-12.74-4.88-4.29,0-7.69,.62-10.19,1.87-2.5,1.26-5,3.08-7.49,5.47l-11.84-11.53c2-2,4-3.77,6-5.32,1.99-1.55,4.17-2.85,6.51-3.9,2.35-1.05,4.93-1.83,7.72-2.32,2.79-.5,5.94-.75,9.44-.75,4.59,0,9.07,.6,13.42,1.79,4.35,1.2,8.19,3.33,11.54,6.37,3.34,3.05,6.04,7.15,8.09,12.29,2.05,5.15,3.08,11.67,3.08,19.56,0,6.4-.82,12.06-2.47,17.01-1.64,4.94-3.97,9.12-6.96,12.51-3,3.39-6.57,5.97-10.72,7.72-4.14,1.75-8.77,2.62-13.86,2.62-5.4,0-10.22-.92-14.47-2.77-4.25-1.85-7.82-4.44-10.71-7.79-2.9-3.34-5.1-7.32-6.6-11.91-1.49-4.59-2.25-9.69-2.25-15.29v-8.24h48.86Zm-29.67,13.34c.09,1.7,.25,3.17,.45,4.42,.2,1.25,.65,2.58,1.34,3.98,1.1,2.29,2.72,4.22,4.87,5.76,2.15,1.56,4.87,2.32,8.17,2.32s6.02-.77,8.17-2.32c2.14-1.54,3.77-3.47,4.87-5.76,.7-1.4,1.15-2.73,1.35-3.98,.2-1.25,.35-2.72,.44-4.42h-29.67Z"/><path class="cls-1" d="M509.48,286.24v-47.21c0-2.7-.37-4.94-1.12-6.74-.75-1.79-1.75-3.25-3-4.35-1.25-1.1-2.65-1.9-4.2-2.4-1.55-.5-3.08-.75-4.57-.75s-3.03,.25-4.57,.75c-1.55,.5-2.95,1.3-4.2,2.4s-2.28,2.55-3.08,4.35c-.8,1.8-1.19,4.05-1.19,6.74v47.21h-19.49v-78.08h19.04v7.19c2.59-2.7,5.59-4.72,8.99-6.07,3.4-1.35,6.89-2.02,10.49-2.02,3.9,0,7.39,.6,10.49,1.79,3.1,1.2,5.75,2.9,7.95,5.1,3.19,3.2,5.32,6.62,6.37,10.27,1.05,3.64,1.57,7.62,1.57,11.91v49.91h-19.49Z"/><path class="cls-1" d="M601.74,286.24c-4,0-7.42-.65-10.26-1.94-2.85-1.3-5.2-3-7.05-5.1-1.85-2.09-3.19-4.47-4.04-7.12-.85-2.64-1.28-5.37-1.28-8.17v-38.67h-8.24v-14.84h8.24v-23.08h19.49v23.08h13.79v14.84h-13.79v37.47c0,4.7,2.25,7.04,6.74,7.04h7.04v16.48h-10.64Z"/></g><g><path class="cls-1" d="M193.17,350.81c0,1.66-.32,3.12-.96,4.39-.64,1.27-1.52,2.35-2.65,3.22-1.13,.88-2.47,1.54-4.01,2.01-1.54,.46-3.21,.69-4.99,.69-2.57,0-4.87-.33-6.89-.98-2.02-.65-3.86-1.82-5.51-3.51l4.29-4.29c1.08,1.08,2.32,1.83,3.72,2.24,1.4,.41,2.88,.62,4.43,.62,2.01,0,3.51-.37,4.53-1.1,1.02-.73,1.53-1.78,1.53-3.15,0-1.18-.35-2.11-1.05-2.81-.35-.32-.73-.56-1.14-.72s-1.05-.3-1.91-.43l-4.06-.62c-1.53-.22-2.81-.56-3.86-1.02-1.05-.46-1.96-1.06-2.72-1.79-1.62-1.56-2.43-3.79-2.43-6.68,0-1.53,.27-2.92,.81-4.17,.54-1.26,1.32-2.34,2.34-3.24,1.02-.91,2.25-1.62,3.72-2.12,1.46-.51,3.12-.76,4.96-.76,2.35,0,4.41,.3,6.16,.9,1.75,.61,3.35,1.62,4.82,3.05l-4.2,4.15c-1.05-1.02-2.19-1.66-3.43-1.93-1.24-.27-2.42-.4-3.53-.4-1.78,0-3.09,.42-3.94,1.26-.84,.84-1.26,1.85-1.26,3.03,0,.44,.07,.88,.22,1.29,.14,.41,.39,.8,.74,1.14,.35,.32,.77,.59,1.26,.81,.49,.22,1.1,.38,1.84,.48l4.06,.62c1.56,.22,2.85,.54,3.86,.95,1.02,.42,1.89,.99,2.63,1.72,.92,.83,1.59,1.84,2,3.05,.41,1.21,.62,2.57,.62,4.1Z"/><path class="cls-1" d="M278.02,360.83h-5.53l-6.25-20.61-6.25,20.61h-5.53l-9.06-33.97h6.92l5.25,21.42,6.2-21.42h4.96l6.2,21.42,5.29-21.42h6.92l-9.12,33.97Z"/><path class="cls-1" d="M348.54,360.83v-33.97h6.63v33.97h-6.63Z"/><path class="cls-1" d="M446.21,360.83v-19.8l-6.49,12.88h-4.49l-6.54-12.88v19.8h-6.63v-33.97h6.54l8.88,18.37,8.83-18.37h6.54v33.97h-6.63Z"/></g></g></svg>